<svg xmlns="http://www.w3.org/2000/svg" viewBox="0 0 720 468"><defs><style>.a{fill:#d7df23;}</style></defs><title>logo-acid</title><path class="a" d="M553.39,403.8c-52.47,0-78.7-30.61-138.46-36a141.74,141.74,0,0,1,19.92-10.2c92.79-8.75,162.75-78.71,162.75-174.9,0-103-80.16-175.87-182.19-175.87S233.23,79.75,233.23,182.75c0,90.37,61.22,156.93,144.78,172.47-30.12,17-49.07,33.52-63.64,53l22.35,20.89c17-11.17,38.38-18,62.67-18,46.16,0,86.48,50,155.47,50,48.1,0,81.13-16,104.94-54.9l-53.93-37.41C596.15,392.63,580.6,403.8,553.39,403.8ZM304.16,182.75c0-68.5,49.55-115.63,111.26-115.63s111.26,47.13,111.26,115.63S477.12,298.37,415.42,298.37,304.16,251.25,304.16,182.75Z"/><path class="a" d="M675.35,279.91c-26.23,0-38.87,12.63-38.87,39.35s12.63,39.35,38.87,39.35,38.87-12.63,38.87-39.35S701.58,279.91,675.35,279.91Z"/><path class="a" d="M70.46,71.83H135v191.1c0,27-13.27,38.09-33.81,38.09S67.41,288.6,67.41,265.07H5.79c0,57.35,39.37,89,95.44,89s95.44-32.52,95.44-89v-247H70.46Z"/></svg>